<svg xmlns="http://www.w3.org/2000/svg" viewBox="0 0 64 64">
  <defs>
    <radialGradient id="g" cx="50%" cy="50%" r="50%">
      <stop offset="0%" stop-color="#00F0FF"/>
      <stop offset="100%" stop-color="#00B8CC"/>
    </radialGradient>
  </defs>
  <rect width="64" height="64" rx="14" fill="#050505"/>
  <circle cx="32" cy="32" r="18" fill="url(#g)" opacity="0.15"/>
  <g stroke="#00F0FF" stroke-width="1.6" fill="none">
    <path d="M20 26 C 22 18, 32 16, 34 24 C 40 18, 48 22, 46 30 C 52 32, 50 42, 42 42 C 40 50, 28 50, 26 44 C 18 46, 14 36, 20 34 C 16 30, 18 26, 20 26 Z"/>
  </g>
  <g fill="#00F0FF">
    <circle cx="22" cy="28" r="1.3"/>
    <circle cx="32" cy="24" r="1.3"/>
    <circle cx="42" cy="28" r="1.3"/>
    <circle cx="44" cy="38" r="1.3"/>
    <circle cx="32" cy="42" r="1.3"/>
    <circle cx="22" cy="38" r="1.3"/>
    <circle cx="32" cy="32" r="1.5"/>
  </g>
</svg>
